<svg width="440" height="101" viewBox="0 0 440 101" fill="none" xmlns="http://www.w3.org/2000/svg">
<path d="M71.006 75.1713C72.49 77.7165 73.8813 80.0329 75.4273 82.607C74.7534 83.3318 73.8749 84.2765 72.8268 85.4037C66.6879 80.1024 60.6426 74.8851 54.6019 69.6626C53.5639 68.7652 52.431 67.9441 51.5403 66.9164C49.3551 64.395 49.862 63.0855 53.5715 62.1244C53.5715 49.4554 53.5715 36.6959 53.5715 23.8182C47.7857 24.7306 41.9839 25.6455 36.7018 26.4785C35.8761 27.9874 35.5007 29.6575 34.5607 30.0822C33.7981 30.4267 32.1533 29.5149 31.2502 28.7488C24.7797 23.2599 18.3955 17.6696 11.9968 12.0967C11.5476 11.7054 11.2024 11.1951 10.7031 10.618C11.4912 9.64233 12.2391 8.71646 13.2365 7.48169C19.3002 12.7696 26.1474 11.2545 33.006 10.131C42.3383 8.60233 51.6912 7.19556 61.0494 5.83335C61.9135 5.70757 63.0659 6.03798 63.7635 6.57331C65.9277 8.23391 68.0224 10.0099 69.9552 11.9306C70.548 12.5197 70.7654 13.7197 70.7613 14.6383C70.6831 32.2129 70.5244 49.7872 70.4455 67.3618C70.4342 69.8879 70.7492 72.4156 71.006 75.1713Z" fill="#F9F9F9"/>
<path d="M13.6585 62.9839C13.7898 53.0482 13.9173 43.4001 14.0465 33.7521C14.1113 28.9165 12.1129 24.9168 8.71582 21.2264C9.57415 20.1983 10.3762 19.2375 11.3779 18.0376C17.3115 23.1983 23.0412 28.176 28.7631 33.1626C29.988 34.23 31.3007 35.2297 32.3539 36.449C33.0605 37.2671 33.9192 38.5456 33.7194 39.3823C33.5279 40.1842 32.0582 40.6818 30.5593 41.7239C30.5593 53.8442 30.5593 66.6915 30.5593 79.7298C36.3182 78.7726 42.173 77.7994 47.9913 76.8322C48.8108 72.5599 50.0095 72.0812 53.2035 74.8449C59.952 80.6842 66.6379 86.5954 73.2996 92.4334C71.7697 95.9539 71.4093 96.0535 68.5008 94.3605C65.236 92.4601 61.7286 91.7359 57.9515 92.3386C47.1249 94.0661 36.2813 95.6911 25.4706 97.5112C22.866 97.9497 21.0726 97.3592 18.8728 95.7705C14.5463 92.6461 12.973 89.0009 13.3999 83.6785C13.9425 76.9127 13.6103 70.0771 13.6585 62.9839Z" fill="#A959CF"/>
<path d="M92.1201 17.0239C94.0399 10.6037 88.4886 8.50585 85.1753 4.82026C88.7054 3.98487 91.1668 4.09051 93.9437 6.37275C97.7405 9.49313 99.2104 12.7745 99.0469 17.7412C98.5323 33.3711 98.6744 49.0214 98.332 64.6588C98.2024 70.5765 98.9786 76.0002 103.727 80.4856C102.657 81.7406 101.71 82.8527 101.02 83.6629C100.003 82.8321 99.1978 82.0755 98.2983 81.455C93.0828 77.8574 91.5466 72.7837 91.6583 66.6691C91.9589 50.2191 91.9819 33.764 92.1201 17.0239Z" fill="#A959CF"/>
<path d="M82.9768 14.1027C82.329 12.3645 81.9401 10.6791 80.958 9.47646C79.6472 7.87128 77.8757 6.64105 75.9644 4.95124C79.3443 4.00059 81.7273 3.89066 84.4308 6.12942C88.3033 9.33628 90.0716 12.6173 89.8757 17.9344C89.2585 34.6811 89.1877 51.4554 89.3202 68.2156C89.3458 71.4419 90.8028 74.9004 92.4071 77.8076C94.3135 81.2625 94.6916 81.0546 91.4134 83.8408C91.1977 83.5566 91.043 83.187 90.7652 83.0108C82.967 78.064 82.2189 70.5469 82.4647 62.2124C82.9346 46.2739 82.8349 30.3187 82.9768 14.1027Z" fill="#A959CF"/>
<path d="M73.4806 35.3663C73.5768 28.3673 73.5529 21.6685 73.82 14.9813C73.9261 12.3265 73.3658 10.3272 71.1131 8.76696C69.6527 7.7554 68.4122 6.42735 66.7551 4.95933C70.2357 3.93241 72.6348 4.02049 75.427 6.30636C79.3002 9.47713 80.8564 12.7849 80.6817 17.8862C80.1299 34.004 80.2387 50.1432 79.9195 66.2707C79.8182 71.3933 81.0456 75.8642 84.5317 79.6697C84.857 80.0248 85.0135 80.5341 85.3164 81.0988C84.3623 81.9748 83.4365 82.8248 82.4591 83.7222C81.1087 82.5338 79.8752 81.368 78.5584 80.305C74.9926 77.4265 73.3439 73.6838 73.3602 69.153C73.4004 57.9924 73.4383 46.8318 73.4806 35.3663Z" fill="#A959CF"/>
<path d="M129.5 70C128.233 70 127.25 69.65 126.55 68.95C125.883 68.25 125.55 67.2833 125.55 66.05V38.6C125.55 37.3 125.883 36.3167 126.55 35.65C127.217 34.9833 128.183 34.65 129.45 34.65C130.683 34.65 131.633 34.9833 132.3 35.65C132.967 36.3167 133.3 37.3 133.3 38.6V63.45H146.7C147.767 63.45 148.583 63.7333 149.15 64.3C149.75 64.8667 150.05 65.6667 150.05 66.7C150.05 67.7667 149.75 68.5833 149.15 69.15C148.583 69.7167 147.767 70 146.7 70H129.5ZM165.568 70.55C162.668 70.55 160.168 70.0333 158.068 69C156.001 67.9333 154.401 66.45 153.268 64.55C152.168 62.6167 151.618 60.35 151.618 57.75C151.618 55.2167 152.151 53 153.218 51.1C154.285 49.1667 155.768 47.6667 157.668 46.6C159.601 45.5 161.785 44.95 164.218 44.95C165.985 44.95 167.585 45.25 169.018 45.85C170.451 46.4167 171.685 47.25 172.718 48.35C173.751 49.4167 174.535 50.7333 175.068 52.3C175.601 53.8333 175.868 55.55 175.868 57.45C175.868 58.0833 175.668 58.5667 175.268 58.9C174.868 59.2 174.285 59.35 173.518 59.35H157.818V55.45H170.418L169.618 56.15C169.618 54.7833 169.418 53.65 169.018 52.75C168.618 51.8167 168.035 51.1167 167.268 50.65C166.535 50.1833 165.618 49.95 164.518 49.95C163.285 49.95 162.235 50.2333 161.368 50.8C160.501 51.3667 159.835 52.1833 159.368 53.25C158.901 54.3167 158.668 55.6 158.668 57.1V57.5C158.668 60.0333 159.251 61.9 160.418 63.1C161.618 64.3 163.385 64.9 165.718 64.9C166.518 64.9 167.435 64.8 168.468 64.6C169.501 64.4 170.468 64.0833 171.368 63.65C172.135 63.2833 172.818 63.1667 173.418 63.3C174.018 63.4 174.485 63.6667 174.818 64.1C175.151 64.5333 175.335 65.0333 175.368 65.6C175.435 66.1667 175.318 66.7333 175.018 67.3C174.718 67.8333 174.218 68.2833 173.518 68.65C172.385 69.2833 171.101 69.75 169.668 70.05C168.268 70.3833 166.901 70.55 165.568 70.55ZM191.663 70.55C189.363 70.55 187.43 70.1667 185.863 69.4C184.33 68.6333 183.18 67.5167 182.413 66.05C181.68 64.5833 181.313 62.7333 181.313 60.5V51.1H179.213C178.28 51.1 177.546 50.85 177.013 50.35C176.513 49.85 176.263 49.1667 176.263 48.3C176.263 47.3667 176.513 46.6667 177.013 46.2C177.546 45.7 178.28 45.45 179.213 45.45H181.313V41.65C181.313 40.3833 181.646 39.4333 182.313 38.8C182.98 38.1333 183.913 37.8 185.113 37.8C186.346 37.8 187.28 38.1333 187.913 38.8C188.546 39.4333 188.863 40.3833 188.863 41.65V45.45H193.613C194.546 45.45 195.263 45.7 195.763 46.2C196.263 46.6667 196.513 47.3667 196.513 48.3C196.513 49.1667 196.263 49.85 195.763 50.35C195.263 50.85 194.546 51.1 193.613 51.1H188.863V60.2C188.863 61.6 189.18 62.65 189.813 63.35C190.48 64.05 191.53 64.4 192.963 64.4C193.463 64.4 193.93 64.35 194.363 64.25C194.796 64.15 195.196 64.0833 195.563 64.05C196.03 64.0167 196.413 64.1667 196.713 64.5C197.013 64.8 197.163 65.4833 197.163 66.55C197.163 67.35 197.03 68.05 196.763 68.65C196.496 69.25 196.03 69.6833 195.363 69.95C194.93 70.1167 194.33 70.25 193.563 70.35C192.83 70.4833 192.196 70.55 191.663 70.55ZM203.228 70.45C201.961 70.45 200.994 70.1167 200.328 69.45C199.661 68.7833 199.328 67.8333 199.328 66.6V48.85C199.328 47.6167 199.644 46.6833 200.278 46.05C200.944 45.3833 201.861 45.05 203.028 45.05C204.228 45.05 205.144 45.3833 205.778 46.05C206.411 46.6833 206.728 47.6167 206.728 48.85V51.45H206.228C206.628 49.45 207.511 47.9 208.878 46.8C210.244 45.7 212.011 45.0833 214.178 44.95C215.011 44.8833 215.644 45.1 216.078 45.6C216.544 46.0667 216.794 46.85 216.828 47.95C216.894 48.9833 216.678 49.8 216.178 50.4C215.711 51 214.911 51.3667 213.778 51.5L212.628 51.6C210.728 51.7667 209.311 52.3167 208.378 53.25C207.478 54.1833 207.028 55.5333 207.028 57.3V66.6C207.028 67.8333 206.694 68.7833 206.028 69.45C205.394 70.1167 204.461 70.45 203.228 70.45ZM227.489 70.55C225.689 70.55 224.072 70.2 222.639 69.5C221.206 68.8 220.089 67.85 219.289 66.65C218.489 65.45 218.089 64.1 218.089 62.6C218.089 60.8 218.556 59.3833 219.489 58.35C220.422 57.2833 221.939 56.5333 224.039 56.1C226.139 55.6333 228.922 55.4 232.389 55.4H235.039V59.3H232.439C230.739 59.3 229.356 59.4 228.289 59.6C227.256 59.7667 226.506 60.0667 226.039 60.5C225.606 60.9333 225.389 61.5333 225.389 62.3C225.389 63.2333 225.706 64 226.339 64.6C227.006 65.2 227.956 65.5 229.189 65.5C230.156 65.5 231.006 65.2833 231.739 64.85C232.506 64.3833 233.106 63.7667 233.539 63C233.972 62.2 234.189 61.3 234.189 60.3V54.55C234.189 53.0833 233.856 52.05 233.189 51.45C232.522 50.8167 231.389 50.5 229.789 50.5C228.889 50.5 227.906 50.6167 226.839 50.85C225.806 51.05 224.656 51.4 223.389 51.9C222.656 52.2333 222.006 52.3167 221.439 52.15C220.872 51.95 220.439 51.6167 220.139 51.15C219.839 50.65 219.689 50.1167 219.689 49.55C219.689 48.95 219.856 48.3833 220.189 47.85C220.522 47.2833 221.072 46.8667 221.839 46.6C223.406 45.9667 224.872 45.5333 226.239 45.3C227.639 45.0667 228.922 44.95 230.089 44.95C232.656 44.95 234.756 45.3333 236.389 46.1C238.056 46.8333 239.306 47.9833 240.139 49.55C240.972 51.0833 241.389 53.0667 241.389 55.5V66.6C241.389 67.8333 241.089 68.7833 240.489 69.45C239.889 70.1167 239.022 70.45 237.889 70.45C236.756 70.45 235.872 70.1167 235.239 69.45C234.639 68.7833 234.339 67.8333 234.339 66.6V64.75L234.689 65.05C234.489 66.1833 234.056 67.1667 233.389 68C232.756 68.8 231.939 69.4333 230.939 69.9C229.939 70.3333 228.789 70.55 227.489 70.55ZM255.921 70.55C254.454 70.55 252.938 70.4167 251.371 70.15C249.838 69.8833 248.438 69.4333 247.171 68.8C246.504 68.4667 246.021 68.05 245.721 67.55C245.454 67.0167 245.338 66.4833 245.371 65.95C245.404 65.4167 245.571 64.9333 245.871 64.5C246.204 64.0667 246.621 63.7833 247.121 63.65C247.654 63.4833 248.238 63.5333 248.871 63.8C250.238 64.3667 251.488 64.7667 252.621 65C253.754 65.2333 254.871 65.35 255.971 65.35C257.404 65.35 258.438 65.1333 259.071 64.7C259.738 64.2333 260.071 63.6333 260.071 62.9C260.071 62.2333 259.854 61.7333 259.421 61.4C258.988 61.0667 258.354 60.8333 257.521 60.7L252.271 59.75C250.204 59.3833 248.604 58.6333 247.471 57.5C246.371 56.3333 245.821 54.85 245.821 53.05C245.821 51.3833 246.288 49.95 247.221 48.75C248.154 47.5167 249.438 46.5833 251.071 45.95C252.738 45.2833 254.621 44.95 256.721 44.95C258.221 44.95 259.604 45.0833 260.871 45.35C262.138 45.6167 263.354 46.05 264.521 46.65C265.121 46.95 265.538 47.35 265.771 47.85C266.038 48.35 266.121 48.8667 266.021 49.4C265.954 49.9333 265.754 50.4167 265.421 50.85C265.088 51.2833 264.654 51.5667 264.121 51.7C263.621 51.8333 263.038 51.7667 262.371 51.5C261.304 51 260.321 50.65 259.421 50.45C258.521 50.2167 257.654 50.1 256.821 50.1C255.321 50.1 254.238 50.35 253.571 50.85C252.904 51.3167 252.571 51.9167 252.571 52.65C252.571 53.2167 252.754 53.7 253.121 54.1C253.521 54.4667 254.121 54.7167 254.921 54.85L260.171 55.8C262.338 56.1667 263.988 56.9 265.121 58C266.254 59.0667 266.821 60.5333 266.821 62.4C266.821 64.9333 265.821 66.9333 263.821 68.4C261.854 69.8333 259.221 70.55 255.921 70.55ZM272.28 70.45C271.347 70.45 270.58 70.2333 269.98 69.8C269.414 69.3667 269.047 68.7833 268.88 68.05C268.747 67.3167 268.897 66.5 269.33 65.6L282.13 37.55C282.664 36.4167 283.297 35.6 284.03 35.1C284.764 34.5667 285.614 34.3 286.58 34.3C287.547 34.3 288.397 34.5667 289.13 35.1C289.864 35.6 290.48 36.4167 290.98 37.55L303.88 65.6C304.314 66.5 304.464 67.3333 304.33 68.1C304.23 68.8333 303.897 69.4167 303.33 69.85C302.764 70.25 302.03 70.45 301.13 70.45C299.997 70.45 299.114 70.1833 298.48 69.65C297.88 69.1167 297.347 68.2833 296.88 67.15L293.88 60.2L296.98 62.35H276.13L279.23 60.2L276.28 67.15C275.78 68.3167 275.247 69.1667 274.68 69.7C274.147 70.2 273.347 70.45 272.28 70.45ZM286.48 43L280.08 58.25L278.73 56.3H294.38L293.03 58.25L286.58 43H286.48ZM312.891 70.45C311.658 70.45 310.708 70.1167 310.041 69.45C309.408 68.7833 309.091 67.8333 309.091 66.6V51.1H307.291C306.358 51.1 305.624 50.85 305.091 50.35C304.591 49.85 304.341 49.1667 304.341 48.3C304.341 47.3667 304.591 46.6667 305.091 46.2C305.624 45.7 306.358 45.45 307.291 45.45H311.291L309.091 47.45V45.9C309.091 42.3333 309.974 39.6667 311.741 37.9C313.541 36.1333 316.174 35.0667 319.641 34.7L321.241 34.55C322.108 34.4833 322.791 34.6167 323.291 34.95C323.824 35.2833 324.174 35.7167 324.341 36.25C324.508 36.7833 324.541 37.3333 324.441 37.9C324.341 38.4333 324.108 38.9167 323.741 39.35C323.408 39.75 322.941 39.9667 322.341 40L321.641 40.05C319.841 40.1833 318.558 40.6167 317.791 41.35C317.024 42.05 316.641 43.1333 316.641 44.6V46.3L315.691 45.45H320.191C321.158 45.45 321.891 45.7 322.391 46.2C322.891 46.6667 323.141 47.3667 323.141 48.3C323.141 49.1667 322.891 49.85 322.391 50.35C321.891 50.85 321.158 51.1 320.191 51.1H316.641V66.6C316.641 69.1667 315.391 70.45 312.891 70.45ZM337.947 70.55C335.047 70.55 332.547 70.0333 330.447 69C328.38 67.9333 326.78 66.45 325.647 64.55C324.547 62.6167 323.997 60.35 323.997 57.75C323.997 55.2167 324.53 53 325.597 51.1C326.664 49.1667 328.147 47.6667 330.047 46.6C331.98 45.5 334.164 44.95 336.597 44.95C338.364 44.95 339.964 45.25 341.397 45.85C342.83 46.4167 344.064 47.25 345.097 48.35C346.13 49.4167 346.914 50.7333 347.447 52.3C347.98 53.8333 348.247 55.55 348.247 57.45C348.247 58.0833 348.047 58.5667 347.647 58.9C347.247 59.2 346.664 59.35 345.897 59.35H330.197V55.45H342.797L341.997 56.15C341.997 54.7833 341.797 53.65 341.397 52.75C340.997 51.8167 340.414 51.1167 339.647 50.65C338.914 50.1833 337.997 49.95 336.897 49.95C335.664 49.95 334.614 50.2333 333.747 50.8C332.88 51.3667 332.214 52.1833 331.747 53.25C331.28 54.3167 331.047 55.6 331.047 57.1V57.5C331.047 60.0333 331.63 61.9 332.797 63.1C333.997 64.3 335.764 64.9 338.097 64.9C338.897 64.9 339.814 64.8 340.847 64.6C341.88 64.4 342.847 64.0833 343.747 63.65C344.514 63.2833 345.197 63.1667 345.797 63.3C346.397 63.4 346.864 63.6667 347.197 64.1C347.53 64.5333 347.714 65.0333 347.747 65.6C347.814 66.1667 347.697 66.7333 347.397 67.3C347.097 67.8333 346.597 68.2833 345.897 68.65C344.764 69.2833 343.48 69.75 342.047 70.05C340.647 70.3833 339.28 70.55 337.947 70.55ZM364.042 70.55C361.742 70.55 359.808 70.1667 358.242 69.4C356.708 68.6333 355.558 67.5167 354.792 66.05C354.058 64.5833 353.692 62.7333 353.692 60.5V51.1H351.592C350.658 51.1 349.925 50.85 349.392 50.35C348.892 49.85 348.642 49.1667 348.642 48.3C348.642 47.3667 348.892 46.6667 349.392 46.2C349.925 45.7 350.658 45.45 351.592 45.45H353.692V41.65C353.692 40.3833 354.025 39.4333 354.692 38.8C355.358 38.1333 356.292 37.8 357.492 37.8C358.725 37.8 359.658 38.1333 360.292 38.8C360.925 39.4333 361.242 40.3833 361.242 41.65V45.45H365.992C366.925 45.45 367.642 45.7 368.142 46.2C368.642 46.6667 368.892 47.3667 368.892 48.3C368.892 49.1667 368.642 49.85 368.142 50.35C367.642 50.85 366.925 51.1 365.992 51.1H361.242V60.2C361.242 61.6 361.558 62.65 362.192 63.35C362.858 64.05 363.908 64.4 365.342 64.4C365.842 64.4 366.308 64.35 366.742 64.25C367.175 64.15 367.575 64.0833 367.942 64.05C368.408 64.0167 368.792 64.1667 369.092 64.5C369.392 64.8 369.542 65.4833 369.542 66.55C369.542 67.35 369.408 68.05 369.142 68.65C368.875 69.25 368.408 69.6833 367.742 69.95C367.308 70.1167 366.708 70.25 365.942 70.35C365.208 70.4833 364.575 70.55 364.042 70.55ZM383.262 70.55C380.629 70.55 378.329 70.0333 376.363 69C374.429 67.9667 372.929 66.4833 371.862 64.55C370.796 62.6167 370.263 60.3333 370.263 57.7C370.263 55.7333 370.563 53.9667 371.163 52.4C371.763 50.8333 372.629 49.5 373.763 48.4C374.929 47.2667 376.313 46.4167 377.913 45.85C379.513 45.25 381.296 44.95 383.262 44.95C385.896 44.95 388.179 45.4667 390.113 46.5C392.079 47.5333 393.596 49 394.663 50.9C395.763 52.8 396.313 55.0667 396.313 57.7C396.313 59.7 395.996 61.4833 395.363 63.05C394.763 64.6167 393.896 65.9667 392.763 67.1C391.629 68.2333 390.246 69.1 388.613 69.7C387.013 70.2667 385.229 70.55 383.262 70.55ZM383.262 64.9C384.363 64.9 385.313 64.6333 386.113 64.1C386.913 63.5667 387.546 62.7833 388.013 61.75C388.479 60.6833 388.713 59.3333 388.713 57.7C388.713 55.2667 388.213 53.4833 387.213 52.35C386.213 51.1833 384.896 50.6 383.262 50.6C382.196 50.6 381.246 50.85 380.413 51.35C379.613 51.85 378.979 52.6333 378.513 53.7C378.079 54.7333 377.863 56.0667 377.863 57.7C377.863 60.1333 378.363 61.95 379.363 63.15C380.363 64.3167 381.663 64.9 383.262 64.9ZM409.806 70.55C408.339 70.55 406.823 70.4167 405.256 70.15C403.723 69.8833 402.323 69.4333 401.056 68.8C400.389 68.4667 399.906 68.05 399.606 67.55C399.339 67.0167 399.223 66.4833 399.256 65.95C399.289 65.4167 399.456 64.9333 399.756 64.5C400.089 64.0667 400.506 63.7833 401.006 63.65C401.539 63.4833 402.123 63.5333 402.756 63.8C404.123 64.3667 405.373 64.7667 406.506 65C407.639 65.2333 408.756 65.35 409.856 65.35C411.289 65.35 412.323 65.1333 412.956 64.7C413.623 64.2333 413.956 63.6333 413.956 62.9C413.956 62.2333 413.739 61.7333 413.306 61.4C412.873 61.0667 412.239 60.8333 411.406 60.7L406.156 59.75C404.089 59.3833 402.489 58.6333 401.356 57.5C400.256 56.3333 399.706 54.85 399.706 53.05C399.706 51.3833 400.173 49.95 401.106 48.75C402.039 47.5167 403.323 46.5833 404.956 45.95C406.623 45.2833 408.506 44.95 410.606 44.95C412.106 44.95 413.489 45.0833 414.756 45.35C416.023 45.6167 417.239 46.05 418.406 46.65C419.006 46.95 419.423 47.35 419.656 47.85C419.923 48.35 420.006 48.8667 419.906 49.4C419.839 49.9333 419.639 50.4167 419.306 50.85C418.973 51.2833 418.539 51.5667 418.006 51.7C417.506 51.8333 416.923 51.7667 416.256 51.5C415.189 51 414.206 50.65 413.306 50.45C412.406 50.2167 411.539 50.1 410.706 50.1C409.206 50.1 408.123 50.35 407.456 50.85C406.789 51.3167 406.456 51.9167 406.456 52.65C406.456 53.2167 406.639 53.7 407.006 54.1C407.406 54.4667 408.006 54.7167 408.806 54.85L414.056 55.8C416.223 56.1667 417.873 56.9 419.006 58C420.139 59.0667 420.706 60.5333 420.706 62.4C420.706 64.9333 419.706 66.9333 417.706 68.4C415.739 69.8333 413.106 70.55 409.806 70.55Z" fill="#A959CF"/>
</svg>
